<svg width="116" height="41" viewBox="0 0 116 41" fill="none" xmlns="http://www.w3.org/2000/svg">
    <circle cx="48.6185" cy="29.3702" r="9.91426" stroke="#FCC01C" stroke-width="3.05054"/>
    <path d="M29.8066 27.8448L37.5177 28.438V31.4038L29.8066 31.9122V27.8448Z" fill="#FCC01C"/>
    <path d="M43.4492 5.89795C42.5735 6.94304 41.3477 9.60944 43.4492 11.9143C43.7034 12.338 45.5676 14.2022 43.0255 16.9985"
          stroke="#FCC01C" stroke-width="2.03369" stroke-linecap="round" stroke-linejoin="round"/>
    <path d="M48.8463 2C47.9706 3.04509 46.7448 5.71149 48.8463 8.01634C49.1005 8.44003 50.9647 10.3042 48.4226 13.1006"
          stroke="#FCC01C" stroke-width="2.03369" stroke-linecap="round" stroke-linejoin="round"/>
    <path d="M54.7784 5.89795C53.9028 6.94304 52.6769 9.60944 54.7784 11.9143C55.0326 12.338 56.8968 14.2022 54.3547 16.9985"
          stroke="#FCC01C" stroke-width="2.03369" stroke-linecap="round" stroke-linejoin="round"/>
    <circle cx="76.6448" cy="29.3702" r="9.91426" stroke="#FCC01C" stroke-width="3.05054"/>
    <path d="M0.667557 21.0182C1.37935 19.1497 2.89191 18.7568 3.55922 18.7938V39.9252H0.667557V21.0182Z"
          fill="#FCC01C"/>
    <path d="M12.1229 39.9252V11.8983H15.237V25.1332L28.5831 11.8983H32.587L15.237 28.8034V39.9252H12.1229Z"
          fill="#FCC01C"/>
    <path d="M28.8056 40.1476L17.2389 28.8034C18.4846 28.2696 20.6496 28.581 21.5764 28.8034L32.9206 40.1476H28.8056Z"
          fill="#FCC01C"/>
    <path d="M95.2024 39.814V11.7871H98.3165V25.022L111.663 11.7871H115.666L98.3165 28.6922V39.814H95.2024Z"
          fill="#FCC01C"/>
    <path d="M111.885 40.0364L100.318 28.6922C101.564 28.1583 103.729 28.4698 104.656 28.6922L116 40.0364H111.885Z"
          fill="#FCC01C"/>
    <circle cx="2.22435" cy="13.1218" r="2.22435" fill="#FCC01C"/>
</svg>
