<svg width="23" height="22" viewBox="0 0 23 22" fill="none" xmlns="http://www.w3.org/2000/svg">
    <g clip-path="url(#clip0_25_631)">
        <path d="M16.7554 2.26875C15.1397 1.27187 13.2835 0.6875 11.2554 0.6875V2.26875H16.7554Z" fill="#ED4C5C"/>
        <path d="M11.2554 3.85005H18.6804C18.096 3.26567 17.4429 2.71567 16.7554 2.2688H11.2554V3.85005Z" fill="white"/>
        <path d="M11.2554 5.43123H19.9522C19.5741 4.84685 19.1616 4.33123 18.7147 3.84998H11.2554V5.43123Z"
              fill="#ED4C5C"/>
        <path d="M11.2554 7.01252H20.7772C20.5366 6.46252 20.2616 5.91252 19.9522 5.43127H11.2554V7.01252Z"
              fill="white"/>
        <path d="M11.2554 8.5937H21.2929C21.1554 8.0437 20.9835 7.52808 20.7772 7.01245H11.2554V8.5937Z"
              fill="#ED4C5C"/>
        <path d="M11.2554 10.2094H21.5335C21.4991 9.65942 21.396 9.1438 21.2929 8.62817H11.2554V10.2094Z" fill="white"/>
        <path d="M21.5335 10.2094H11.2554V11H0.942871C0.942871 11.275 0.942871 11.5156 0.977246 11.7906H21.5335C21.5679 11.5156 21.5679 11.275 21.5679 11C21.5679 10.725 21.5679 10.45 21.5335 10.2094Z"
              fill="#ED4C5C"/>
        <path d="M1.21816 13.3719H21.2932C21.4307 12.8563 21.4994 12.3406 21.5338 11.7906H0.977539C1.01191 12.3063 1.11504 12.8563 1.21816 13.3719Z"
              fill="white"/>
        <path d="M1.73303 14.9531H20.7768C20.983 14.4375 21.1549 13.9218 21.2924 13.3718H1.21741C1.35491 13.9218 1.52678 14.4375 1.73303 14.9531Z"
              fill="#ED4C5C"/>
        <path d="M2.55803 16.5344H19.9518C20.2612 16.0187 20.5362 15.5031 20.7768 14.9531H1.73303C1.97366 15.5031 2.24866 16.0187 2.55803 16.5344Z"
              fill="white"/>
        <path d="M3.79646 18.1157H18.7152C19.1621 17.6344 19.609 17.0844 19.9527 16.5344H2.55896C2.90271 17.1188 3.34959 17.6344 3.79646 18.1157Z"
              fill="#ED4C5C"/>
        <path d="M5.72053 19.6969H16.7893C17.5112 19.25 18.1299 18.7 18.7143 18.1156H3.79553C4.37991 18.7344 5.03303 19.25 5.72053 19.6969Z"
              fill="white"/>
        <path d="M11.2551 21.3125C13.2832 21.3125 15.1738 20.7281 16.7895 19.6969H5.7207C7.33633 20.7281 9.22695 21.3125 11.2551 21.3125Z"
              fill="#ED4C5C"/>
        <path d="M5.75537 2.26875C5.0335 2.71563 4.38037 3.26562 3.796 3.85C3.31475 4.33125 2.90225 4.88125 2.5585 5.43125C2.24912 5.94688 1.93975 6.4625 1.7335 7.0125C1.52725 7.52812 1.35537 8.04375 1.21787 8.59375C1.08037 9.10938 1.01162 9.625 0.977246 10.175C0.942871 10.45 0.942871 10.725 0.942871 11H11.2554V0.6875C9.22725 0.6875 7.371 1.27187 5.75537 2.26875Z"
              fill="#428BC1"/>
        <path d="M8.84883 1.03125L9.0207 1.54688H9.53633L9.12383 1.89062L9.26133 2.40625L8.84883 2.09687L8.43633 2.40625L8.57383 1.89062L8.16133 1.54688H8.67695L8.84883 1.03125ZM10.2238 3.09375L10.3957 3.60938H10.9113L10.4988 3.95312L10.6363 4.46875L10.2238 4.15938L9.81133 4.46875L9.94883 3.95312L9.53633 3.60938H10.052L10.2238 3.09375ZM7.47383 3.09375L7.6457 3.60938H8.16133L7.74883 3.95312L7.88633 4.46875L7.47383 4.15938L7.06133 4.46875L7.19883 3.95312L6.78633 3.60938H7.30195L7.47383 3.09375ZM8.84883 5.15625L9.0207 5.67188H9.53633L9.12383 6.01562L9.26133 6.53125L8.84883 6.22188L8.43633 6.53125L8.57383 6.01562L8.16133 5.67188H8.67695L8.84883 5.15625ZM6.09883 5.15625L6.2707 5.67188H6.78633L6.37383 6.01562L6.51133 6.53125L6.09883 6.22188L5.68633 6.53125L5.82383 6.01562L5.41133 5.67188H5.92695L6.09883 5.15625ZM3.34883 5.15625L3.5207 5.67188H4.03633L3.62383 6.01562L3.76133 6.53125L3.34883 6.22188L2.93633 6.53125L3.07383 6.01562L2.66133 5.67188H3.17695L3.34883 5.15625ZM10.2238 7.21875L10.3957 7.73438H10.9113L10.4988 8.07812L10.6363 8.59375L10.2238 8.28438L9.81133 8.59375L9.94883 8.07812L9.53633 7.73438H10.052L10.2238 7.21875ZM7.47383 7.21875L7.6457 7.73438H8.16133L7.74883 8.07812L7.88633 8.59375L7.47383 8.28438L7.06133 8.59375L7.19883 8.07812L6.78633 7.73438H7.30195L7.47383 7.21875ZM4.72383 7.21875L4.8957 7.73438H5.41133L4.99883 8.07812L5.13633 8.59375L4.72383 8.28438L4.31133 8.59375L4.44883 8.07812L4.03633 7.73438H4.55195L4.72383 7.21875ZM8.84883 9.28125L9.0207 9.79688H9.53633L9.12383 10.1406L9.26133 10.6562L8.84883 10.3469L8.43633 10.6562L8.57383 10.1406L8.16133 9.79688H8.67695L8.84883 9.28125ZM6.09883 9.28125L6.2707 9.79688H6.78633L6.37383 10.1406L6.51133 10.6562L6.09883 10.3469L5.68633 10.6562L5.82383 10.1406L5.41133 9.79688H5.92695L6.09883 9.28125ZM3.34883 9.28125L3.5207 9.79688H4.03633L3.62383 10.1406L3.76133 10.6562L3.34883 10.3469L2.93633 10.6562L3.07383 10.1406L2.66133 9.79688H3.17695L3.34883 9.28125ZM4.31133 4.46875L4.72383 4.15938L5.13633 4.46875L4.96445 3.95312L5.37695 3.60938H4.86133L4.72383 3.09375L4.55195 3.60938H4.0707L4.4832 3.91875L4.31133 4.46875ZM1.56133 8.59375L1.97383 8.28438L2.38633 8.59375L2.21445 8.07812L2.62695 7.73438H2.1457L1.97383 7.21875L1.80195 7.73438H1.4582C1.4582 7.76875 1.42383 7.80312 1.42383 7.8375L1.69883 8.04375L1.56133 8.59375Z"
              fill="white"/>
    </g>
    <defs>
        <clipPath id="clip0_25_631">
            <rect width="22" height="22" fill="white" transform="translate(0.255371)"/>
        </clipPath>
    </defs>
</svg>
